<?xml version="1.0" encoding="utf-8"?>
<!-- Generator: Adobe Illustrator 25.2.1, SVG Export Plug-In . SVG Version: 6.00 Build 0)  -->
<svg version="1.1" id="Layer_1" xmlns="http://www.w3.org/2000/svg" xmlns:xlink="http://www.w3.org/1999/xlink" x="0px" y="0px"
	 viewBox="0 0 2500 2500" style="enable-background:new 0 0 2500 2500;" xml:space="preserve">
<style type="text/css">
	.st0{fill-rule:evenodd;clip-rule:evenodd;fill:#236BB3;}
	.st1{fill-rule:evenodd;clip-rule:evenodd;fill:#EEBD31;}
	.st2{fill-rule:evenodd;clip-rule:evenodd;fill:#C9D3EB;}
</style>
<path class="st0" d="M1195.5,567.9c21.1,9.5,31.4,37.9,38.6,76.3l225.6,1213.2L376.4,1219.3L120.3,271.9
	c-7.1-27.7,17.1-45.4,39.9-38.2l443.2,145.8c50.1,16.1,24.8-70.1,62.8-58.6l333.2,100.5c33,11.9,19.7,84.2,52.9,98.9L1195.5,567.9
	L1195.5,567.9z"/>
<path class="st1" d="M1770.5,413.8L631.8,120.1c-22-5.1-36.3,5.8-44.3,31.3l-53.1,205.3l69.1,22.7c50.1,16.1,24.8-70.1,62.8-58.6
	l333.2,100.5c33,11.9,19.7,84.2,52.9,98.9l143.2,47.7c21.1,9.5,31.4,37.9,38.6,76.3l225.5,1212.9l0.1,0.2l344-1377.4
	C1810.2,449.8,1794.6,421.2,1770.5,413.8L1770.5,413.8z"/>
<path class="st2" d="M2415.6,1394.4l-778.8-246l-177,709l-0.1-0.2l0.1,0.4l995.8-427.5C2479.3,1416.9,2443,1405.5,2415.6,1394.4
	L2415.6,1394.4z"/>
<path class="st0" d="M262.7,1957H36.8v417.3h60.8v-190.8h165.1v-54.6H97.6v-117.3h165.1V1957z M367.2,2015.7
	c0-18-14.9-32.9-32.9-32.9s-32.9,14.9-32.9,32.9c0,18,14.9,32.9,32.9,32.9S367.2,2033.7,367.2,2015.7z M361.6,2097.6h-55.2v276.7
	h55.2L361.6,2097.6L361.6,2097.6z M468.7,1957h-55.3v417.3h55.3V1957z M752.7,2293.6c-32.3,21.1-63.9,33.5-97.5,33.5
	c-53.4,0-85-28.5-93.7-83.8h196.1c0-103-47.2-153.3-121-153.3c-77,0-130.3,57.1-130.3,141.5c0,77,48.4,148.4,135.3,148.4
	c47.2,0,77.6-10.5,111.1-32.9L752.7,2293.6L752.7,2293.6L752.7,2293.6z M559.4,2206.7c7.5-44,32.9-68.9,75.1-68.9
	c39.1,0,63.3,26.7,65.2,68.9H559.4z M1162.3,1957h-56.5l-126.5,178.7L854,1957h-57.1v417.3h60.8v-313.7h1.3l115.4,163.8h9.9
	l115.9-163.8h1.2v313.7h60.8L1162.3,1957L1162.3,1957z M1434.3,2324.7c-12.4,9.3-23.6,14.9-29.2,14.9c-6.8,0-10.5-3.7-10.5-14.3
	v-143.4c0-63.3-44.7-91.9-101.2-91.9c-40.3,0-70.8,12.4-92.5,37.8v60.2c26.7-31.7,57.7-45.9,88.1-45.9c33.5,0,50.3,14.3,50.3,49
	v14.9l-49.1,17.4c-44.7,16.1-95,32.9-95,88.1c0,36,27.3,68.3,68.3,68.3c25.4,0,50.9-9.3,75.1-28.6c5,19.9,18,28.6,42.2,28.6
	c17.4,0,27.9-5,53.4-21.7L1434.3,2324.7L1434.3,2324.7L1434.3,2324.7z M1339.3,2317.9c-14.9,14.3-31.1,22.9-48.5,22.9
	c-22.9,0-39.7-16.1-39.7-39.1c0-32.9,41-49,88.2-65.2V2317.9z M1512.5,1957h-55.2v417.3h55.2V1957z M1704.3,2095.6h-65.8
	L1515,2232.2l139.6,142.1h74.5l-144-142.1L1704.3,2095.6z"/>
<path class="st0" d="M1950.6,2293.6c-32.3,21.1-63.9,33.5-97.5,33.5c-53.4,0-85-28.5-93.7-83.8h196.1c0-103-47.2-153.3-121.1-153.3
	c-77,0-130.4,57.1-130.4,141.5c0,77,48.4,148.4,135.3,148.4c47.2,0,77.6-10.5,111.1-32.9L1950.6,2293.6L1950.6,2293.6L1950.6,2293.6
	z M1760.6,2206.7c7.4-44,32.9-68.9,75.1-68.9c39.1,0,63.3,26.7,65.1,68.9H1760.6z M1987.7,2095.6v278.7h55.3v-145.9
	c0-47.8,29.8-85.7,67.7-85.7c13,0,34.7,11.2,51.5,27.3l29.2-47.8c-23-21.7-44-32.3-66.4-32.3c-26,0-52.7,20.5-80.7,69.5h-1.2v-63.9
	L1987.7,2095.6L1987.7,2095.6L1987.7,2095.6z M2139.9,2381.1c22.7,0.1,41.2-18.3,41.2-41c0-0.1,0-0.2,0-0.3
	c0-22.8-18.4-41.3-41.2-41.3c-22.8,0-41.3,18.5-41.3,41.3C2098.5,2362.6,2117,2381.1,2139.9,2381.1L2139.9,2381.1z M2103.7,2339.8
	c0-20,16.2-36.1,36.2-36.1s36.1,16.2,36.1,36.2c0,9.6-3.8,18.7-10.6,25.5c-6.8,6.8-15.9,10.6-25.5,10.6
	C2119.9,2376,2103.7,2359.8,2103.7,2339.8z"/>
<path class="st0" d="M2154.3,2364l4.6-2.2l-9.1-19.5c4.3-1.7,7.6-6.6,7.6-11.9c0-7.6-5.9-13-11.3-13h-19.8v45.9h5.1v-20.2h13.2
	L2154.3,2364L2154.3,2364z M2131.4,2322.6h14.7c2.6,0,6.3,3,6.3,7.8c0,4.3-3.3,7.6-6.1,7.6v0.1h-14.9L2131.4,2322.6L2131.4,2322.6
	L2131.4,2322.6z M2384.1,1557.2V1507h16v-6.7h-38.6v6.7h16v50.2H2384.1L2384.1,1557.2z M2406.6,1500.3h11.7l13.5,46.9l13.8-46.9
	h10.9v56.9h-6.5V1506l-15.7,51.2h-6.3l-15.1-50.9v50.9h-6.4L2406.6,1500.3L2406.6,1500.3z"/>
</svg>
