<?xml version="1.0" encoding="utf-8"?>
<!-- Generator: Adobe Illustrator 25.2.1, SVG Export Plug-In . SVG Version: 6.00 Build 0)  -->
<svg version="1.1" id="Layer_1" xmlns="http://www.w3.org/2000/svg" xmlns:xlink="http://www.w3.org/1999/xlink" x="0px" y="0px"
	 viewBox="0 0 86.1 85.4" style="enable-background:new 0 0 86.1 85.4;" xml:space="preserve">
<style type="text/css">
	.st0{fill:url(#SVGID_1_);}
	.st1{fill:url(#SVGID_2_);}
	.st2{fill:url(#SVGID_3_);}
	.st3{fill:url(#SVGID_4_);}
	.st4{fill:url(#SVGID_5_);}
	.st5{fill:url(#SVGID_6_);}
	.st6{fill:url(#SVGID_7_);}
	.st7{fill:url(#SVGID_8_);}
	.st8{fill:#FFFFFF;}
	.st9{fill:url(#SVGID_9_);}
	.st10{fill:url(#SVGID_10_);}
	.st11{fill:url(#SVGID_11_);}
	.st12{fill:url(#SVGID_12_);}
	.st13{fill:#9E1209;}
	.st14{fill:url(#SVGID_13_);}
	.st15{fill:url(#SVGID_14_);}
	.st16{fill:url(#SVGID_15_);}
	.st17{fill:url(#SVGID_16_);}
</style>
<linearGradient id="SVGID_1_" gradientUnits="userSpaceOnUse" x1="122.6815" y1="2050.9277" x2="104.6185" y2="2082.8198" gradientTransform="matrix(1 0 0 -1 -47.5 2144.0898)">
	<stop  offset="0" style="stop-color:#FB7655"/>
	<stop  offset="0" style="stop-color:#FB7655"/>
	<stop  offset="0.41" style="stop-color:#E42B1E"/>
	<stop  offset="0.99" style="stop-color:#990000"/>
	<stop  offset="1" style="stop-color:#990000"/>
</linearGradient>
<path class="st0" d="M66.3,56.4l-48.9,29l63.3-4.3l4.9-63.8L66.3,56.4z"/>
<linearGradient id="SVGID_2_" gradientUnits="userSpaceOnUse" x1="131.6756" y1="2077.7129" x2="108.3966" y2="2093.334" gradientTransform="matrix(1 0 0 -1 -47.5 2144.0898)">
	<stop  offset="0" style="stop-color:#871101"/>
	<stop  offset="0" style="stop-color:#871101"/>
	<stop  offset="0.99" style="stop-color:#911209"/>
	<stop  offset="1" style="stop-color:#911209"/>
</linearGradient>
<path class="st1" d="M80.8,81.1l-5.4-37.6L60.5,63.1L80.8,81.1z"/>
<linearGradient id="SVGID_3_" gradientUnits="userSpaceOnUse" x1="113.0248" y1="2049.9187" x2="89.7458" y2="2065.5398" gradientTransform="matrix(1 0 0 -1 -47.5 2144.0898)">
	<stop  offset="0" style="stop-color:#871101"/>
	<stop  offset="0" style="stop-color:#871101"/>
	<stop  offset="0.99" style="stop-color:#911209"/>
	<stop  offset="1" style="stop-color:#911209"/>
</linearGradient>
<path class="st2" d="M80.9,81.1L41,78l-23.4,7.4L80.9,81.1z"/>
<linearGradient id="SVGID_4_" gradientUnits="userSpaceOnUse" x1="64.201" y1="2089.0334" x2="67.8099" y2="2065.5793" gradientTransform="matrix(1 0 0 -1 -47.5 2144.0898)">
	<stop  offset="0" style="stop-color:#FFFFFF"/>
	<stop  offset="0" style="stop-color:#FFFFFF"/>
	<stop  offset="0.23" style="stop-color:#E57252"/>
	<stop  offset="0.46" style="stop-color:#DE3B20"/>
	<stop  offset="0.99" style="stop-color:#A60003"/>
	<stop  offset="1" style="stop-color:#A60003"/>
</linearGradient>
<path class="st3" d="M17.7,85.3l10-32.6l-22,4.7L17.7,85.3z"/>
<linearGradient id="SVGID_5_" gradientUnits="userSpaceOnUse" x1="88.9949" y1="2110.9285" x2="90.3249" y2="2086.9915" gradientTransform="matrix(1 0 0 -1 -47.5 2144.0898)">
	<stop  offset="0" style="stop-color:#FFFFFF"/>
	<stop  offset="0" style="stop-color:#FFFFFF"/>
	<stop  offset="0.23" style="stop-color:#E4714E"/>
	<stop  offset="0.56" style="stop-color:#BE1A0D"/>
	<stop  offset="0.99" style="stop-color:#A80D00"/>
	<stop  offset="1" style="stop-color:#A80D00"/>
</linearGradient>
<path class="st4" d="M60.5,63.2l-9.2-35.9L25.2,51.9L60.5,63.2z"/>
<linearGradient id="SVGID_6_" gradientUnits="userSpaceOnUse" x1="111.0171" y1="2133.0505" x2="114.9981" y2="2115.8945" gradientTransform="matrix(1 0 0 -1 -47.5 2144.0898)">
	<stop  offset="0" style="stop-color:#FFFFFF"/>
	<stop  offset="0" style="stop-color:#FFFFFF"/>
	<stop  offset="0.18" style="stop-color:#E46342"/>
	<stop  offset="0.4" style="stop-color:#C82410"/>
	<stop  offset="0.99" style="stop-color:#A80D00"/>
	<stop  offset="1" style="stop-color:#A80D00"/>
</linearGradient>
<path class="st5" d="M83.5,27.8L58.7,7.6l-6.9,22.3L83.5,27.8z"/>
<linearGradient id="SVGID_7_" gradientUnits="userSpaceOnUse" x1="98.8589" y1="2139.1194" x2="116.0119" y2="2147.6953" gradientTransform="matrix(1 0 0 -1 -47.5 2144.0898)">
	<stop  offset="0" style="stop-color:#FFFFFF"/>
	<stop  offset="0" style="stop-color:#FFFFFF"/>
	<stop  offset="0.54" style="stop-color:#C81F11"/>
	<stop  offset="0.99" style="stop-color:#BF0905"/>
	<stop  offset="1" style="stop-color:#BF0905"/>
</linearGradient>
<path class="st6" d="M71.9,0.3L57.3,8.4l-9.2-8.2L71.9,0.3z"/>
<linearGradient id="SVGID_8_" gradientUnits="userSpaceOnUse" x1="49.1843" y1="2095.0122" x2="50.5963" y2="2080.8762" gradientTransform="matrix(1 0 0 -1 -47.5 2144.0898)">
	<stop  offset="0" style="stop-color:#FFFFFF"/>
	<stop  offset="0" style="stop-color:#FFFFFF"/>
	<stop  offset="0.31" style="stop-color:#DE4024"/>
	<stop  offset="0.99" style="stop-color:#BF190B"/>
	<stop  offset="1" style="stop-color:#BF190B"/>
</linearGradient>
<path class="st7" d="M0,68.3l6.1-11.1l-5-13.3L0,68.3z"/>
<path class="st8" d="M0.8,43.5l5,14.1l21.6-4.8l24.7-22.9l7-22.1l-11-7.7l-18.6,7c-5.9,5.5-17.3,16.3-17.7,16.5
	C11.3,23.6,4.2,37.1,0.8,43.5z"/>
<linearGradient id="SVGID_9_" gradientUnits="userSpaceOnUse" x1="39.4541" y1="2077.0349" x2="105.8211" y2="2145.2778" gradientTransform="matrix(1 0 0 -1 -47.5 2144.0898)">
	<stop  offset="0" style="stop-color:#BD0012"/>
	<stop  offset="0" style="stop-color:#BD0012"/>
	<stop  offset="7.000000e-02" style="stop-color:#FFFFFF"/>
	<stop  offset="0.17" style="stop-color:#FFFFFF"/>
	<stop  offset="0.27" style="stop-color:#C82F1C"/>
	<stop  offset="0.33" style="stop-color:#820C01"/>
	<stop  offset="0.46" style="stop-color:#A31601"/>
	<stop  offset="0.72" style="stop-color:#B31301"/>
	<stop  offset="0.99" style="stop-color:#E82609"/>
	<stop  offset="1" style="stop-color:#E82609"/>
</linearGradient>
<path class="st9" d="M18.2,18.2C31,5.6,47.4-1.9,53.7,4.5c6.3,6.3-0.4,21.8-13.1,34.4C27.8,51.5,11.6,59.3,5.4,53
	C-0.9,46.6,5.5,30.8,18.2,18.2z"/>
<linearGradient id="SVGID_10_" gradientUnits="userSpaceOnUse" x1="90.2732" y1="2070.1731" x2="70.2822" y2="2075.1072" gradientTransform="matrix(1 0 0 -1 -47.5 2144.0898)">
	<stop  offset="0" style="stop-color:#8C0C01"/>
	<stop  offset="0" style="stop-color:#8C0C01"/>
	<stop  offset="0.54" style="stop-color:#990C00"/>
	<stop  offset="0.99" style="stop-color:#A80D0E"/>
	<stop  offset="1" style="stop-color:#A80D0E"/>
</linearGradient>
<path class="st10" d="M17.7,85.3l9.9-32.7l32.8,10.5C48.5,74.3,35.3,83.7,17.7,85.3z"/>
<linearGradient id="SVGID_11_" gradientUnits="userSpaceOnUse" x1="124.6026" y1="2094.1565" x2="106.8436" y2="2110.0725" gradientTransform="matrix(1 0 0 -1 -47.5 2144.0898)">
	<stop  offset="0" style="stop-color:#7E110B"/>
	<stop  offset="0" style="stop-color:#7E110B"/>
	<stop  offset="0.99" style="stop-color:#9E0C00"/>
	<stop  offset="1" style="stop-color:#9E0C00"/>
</linearGradient>
<path class="st11" d="M52.1,29.8l8.4,33.4c9.9-10.4,18.8-21.6,23.2-35.5C83.6,27.7,52.1,29.8,52.1,29.8z"/>
<linearGradient id="SVGID_12_" gradientUnits="userSpaceOnUse" x1="131.1218" y1="2123.3557" x2="122.2758" y2="2132.8127" gradientTransform="matrix(1 0 0 -1 -47.5 2144.0898)">
	<stop  offset="0" style="stop-color:#79130D"/>
	<stop  offset="0" style="stop-color:#79130D"/>
	<stop  offset="0.99" style="stop-color:#9E120B"/>
	<stop  offset="1" style="stop-color:#9E120B"/>
</linearGradient>
<path class="st12" d="M83.6,27.8c3.3-10.1,4.1-24.7-11.8-27.4l-13,7.2L83.6,27.8z"/>
<path class="st13" d="M0,68.2c0.5,16.8,12.6,17,17.7,17.2L5.8,57.5L0,68.2z"/>
<radialGradient id="SVGID_13_" cx="109.6136" cy="2109.7708" r="21.762" gradientTransform="matrix(1 0 0 -1 -47.5 2144.0898)" gradientUnits="userSpaceOnUse">
	<stop  offset="0" style="stop-color:#A80D00"/>
	<stop  offset="0" style="stop-color:#A80D00"/>
	<stop  offset="0.99" style="stop-color:#7E0E08"/>
	<stop  offset="1" style="stop-color:#7E0E08"/>
</radialGradient>
<path class="st14" d="M52.1,29.8c7.6,4.7,23,14.1,23.3,14.3c0.5,0.3,6.6-10.3,8-16.3C83.4,27.7,52.1,29.8,52.1,29.8z"/>
<radialGradient id="SVGID_14_" cx="79.4736" cy="2081.0918" r="28.932" gradientTransform="matrix(1 0 0 -1 -47.5 2144.0898)" gradientUnits="userSpaceOnUse">
	<stop  offset="0" style="stop-color:#A30C00"/>
	<stop  offset="0" style="stop-color:#A30C00"/>
	<stop  offset="0.99" style="stop-color:#800E08"/>
	<stop  offset="1" style="stop-color:#800E08"/>
</radialGradient>
<path class="st15" d="M27.5,52.6l13.2,25.5c7.8-4.2,13.9-9.4,19.5-14.9C60.3,63.1,27.5,52.6,27.5,52.6z"/>
<linearGradient id="SVGID_15_" gradientUnits="userSpaceOnUse" x1="59.014" y1="2058.8088" x2="51.805" y2="2083.2659" gradientTransform="matrix(1 0 0 -1 -47.5 2144.0898)">
	<stop  offset="0" style="stop-color:#8B2114"/>
	<stop  offset="0" style="stop-color:#8B2114"/>
	<stop  offset="0.43" style="stop-color:#9E100A"/>
	<stop  offset="0.99" style="stop-color:#B3100C"/>
	<stop  offset="1" style="stop-color:#B3100C"/>
</linearGradient>
<path class="st16" d="M5.7,57.6L3.9,79.9c3.5,4.8,8.4,5.2,13.5,4.9C13.6,75.5,6.3,57.2,5.7,57.6z"/>
<linearGradient id="SVGID_16_" gradientUnits="userSpaceOnUse" x1="114.2942" y1="2139.8674" x2="130.4562" y2="2132.7334" gradientTransform="matrix(1 0 0 -1 -47.5 2144.0898)">
	<stop  offset="0" style="stop-color:#B31000"/>
	<stop  offset="0" style="stop-color:#B31000"/>
	<stop  offset="0.44" style="stop-color:#910F08"/>
	<stop  offset="0.99" style="stop-color:#791C12"/>
	<stop  offset="1" style="stop-color:#791C12"/>
</linearGradient>
<path class="st17" d="M58.7,7.6l26.2,3.7c-1.4-5.9-5.7-9.8-13-11L58.7,7.6z"/>
</svg>
