<?xml version="1.0" encoding="utf-8"?>
<!-- Generator: Adobe Illustrator 25.2.1, SVG Export Plug-In . SVG Version: 6.00 Build 0)  -->
<svg version="1.1" id="Layer_1" xmlns="http://www.w3.org/2000/svg" xmlns:xlink="http://www.w3.org/1999/xlink" x="0px" y="0px"
	 viewBox="0 0 90.4 128" style="enable-background:new 0 0 90.4 128;" xml:space="preserve">
<style type="text/css">
	.st0{fill:url(#SVGID_1_);}
	.st1{fill:url(#SVGID_2_);}
	.st2{fill:url(#SVGID_3_);}
	.st3{fill:url(#SVGID_4_);}
	.st4{fill:url(#SVGID_5_);}
	.st5{fill:url(#SVGID_6_);}
	.st6{fill:url(#SVGID_7_);}
	.st7{fill:url(#SVGID_8_);}
	.st8{fill:#FFFFFF;}
	.st9{fill:url(#SVGID_9_);}
	.st10{fill:url(#SVGID_10_);}
	.st11{fill:url(#SVGID_11_);}
	.st12{fill:url(#SVGID_12_);}
	.st13{fill:#9E1209;}
	.st14{fill:url(#SVGID_13_);}
	.st15{fill:url(#SVGID_14_);}
	.st16{fill:url(#SVGID_15_);}
	.st17{fill:url(#SVGID_16_);}
</style>
<path d="M11.1,109.4v8.5H6.4V95.7h6.5c3,0,5.3,0.6,6.7,1.7c1.5,1.1,2.2,2.8,2.2,5c0,1.3-0.4,2.5-1.1,3.5c-0.7,1-1.7,1.8-3.1,2.4
	l6.6,9.7h-5.2l-5.3-8.5L11.1,109.4L11.1,109.4z M11.1,105.6h1.5c1.5,0,2.6-0.2,3.3-0.7c0.7-0.5,1.1-1.3,1.1-2.3
	c0-1.1-0.4-1.8-1.1-2.3c-0.7-0.4-1.9-0.7-3.4-0.7h-1.4V105.6z M38.7,118l-0.6-2.2h-0.2c-0.5,0.8-1.2,1.4-2.1,1.8
	c-0.9,0.4-2,0.6-3.1,0.6c-2,0-3.5-0.5-4.5-1.6c-1-1.1-1.5-2.6-1.5-4.6v-11.1h4.6v9.9c0,1.2,0.2,2.2,0.7,2.8c0.4,0.6,1.1,0.9,2.1,0.9
	c1.3,0,2.2-0.4,2.8-1.3c0.6-0.9,0.9-2.3,0.9-4.3v-8h4.6v17L38.7,118L38.7,118z M56.6,100.6c2,0,3.6,0.8,4.7,2.4
	c1.1,1.6,1.7,3.7,1.7,6.5c0,2.8-0.6,5-1.8,6.5c-1.2,1.5-2.8,2.3-4.8,2.3c-2,0-3.6-0.7-4.7-2.2h-0.3l-0.8,1.9h-3.6V94.3h4.6v5.5
	c0,0.7-0.1,1.8-0.2,3.4h0.2C52.8,101.5,54.4,100.6,56.6,100.6L56.6,100.6z M55.1,104.3c-1.1,0-2,0.4-2.5,1.1
	c-0.5,0.7-0.8,1.9-0.8,3.5v0.5c0,1.8,0.3,3.1,0.8,3.9c0.5,0.8,1.4,1.2,2.6,1.2c1,0,1.7-0.4,2.3-1.3c0.6-0.9,0.8-2.2,0.8-3.8
	s-0.3-2.9-0.9-3.8C56.8,104.8,56.1,104.3,55.1,104.3z M64.1,100.9h5.1l3.2,9.6c0.3,0.8,0.5,1.8,0.6,3h0.1c0.1-1,0.3-2,0.7-3l3.2-9.6
	h5l-7.2,19.2c-0.7,1.8-1.6,3.1-2.8,4c-1.2,0.9-2.7,1.3-4.3,1.3c-0.8,0-1.6-0.1-2.4-0.3v-3.7c0.6,0.1,1.2,0.2,1.8,0.2
	c0.8,0,1.5-0.3,2.2-0.8c0.6-0.5,1.1-1.3,1.4-2.3l0.3-0.8C70.9,117.8,64.1,100.9,64.1,100.9z"/>
<linearGradient id="SVGID_1_" gradientUnits="userSpaceOnUse" x1="124.7825" y1="-1925.4384" x2="106.7195" y2="-1957.3304" gradientTransform="matrix(1 0 0 1 -47.5 2021)">
	<stop  offset="0" style="stop-color:#FB7655"/>
	<stop  offset="0" style="stop-color:#FB7655"/>
	<stop  offset="0.41" style="stop-color:#E42B1E"/>
	<stop  offset="0.99" style="stop-color:#990000"/>
	<stop  offset="1" style="stop-color:#990000"/>
</linearGradient>
<path class="st0" d="M68.4,58.8l-48.9,29l63.3-4.3l4.9-63.8L68.4,58.8z"/>
<linearGradient id="SVGID_2_" gradientUnits="userSpaceOnUse" x1="133.7804" y1="-1952.2302" x2="110.5014" y2="-1967.8513" gradientTransform="matrix(1 0 0 1 -47.5 2021)">
	<stop  offset="0" style="stop-color:#871101"/>
	<stop  offset="0" style="stop-color:#871101"/>
	<stop  offset="0.99" style="stop-color:#911209"/>
	<stop  offset="1" style="stop-color:#911209"/>
</linearGradient>
<path class="st1" d="M82.9,83.5l-5.4-37.6L62.6,65.5L82.9,83.5z"/>
<linearGradient id="SVGID_3_" gradientUnits="userSpaceOnUse" x1="115.1546" y1="-1924.4734" x2="91.8756" y2="-1940.0945" gradientTransform="matrix(1 0 0 1 -47.5 2021)">
	<stop  offset="0" style="stop-color:#871101"/>
	<stop  offset="0" style="stop-color:#871101"/>
	<stop  offset="0.99" style="stop-color:#911209"/>
	<stop  offset="1" style="stop-color:#911209"/>
</linearGradient>
<path class="st2" d="M83,83.5l-39.9-3.1l-23.4,7.4L83,83.5z"/>
<linearGradient id="SVGID_4_" gradientUnits="userSpaceOnUse" x1="66.277" y1="-1963.5399" x2="69.8859" y2="-1940.0858" gradientTransform="matrix(1 0 0 1 -47.5 2021)">
	<stop  offset="0" style="stop-color:#FFFFFF"/>
	<stop  offset="0" style="stop-color:#FFFFFF"/>
	<stop  offset="0.23" style="stop-color:#E57252"/>
	<stop  offset="0.46" style="stop-color:#DE3B20"/>
	<stop  offset="0.99" style="stop-color:#A60003"/>
	<stop  offset="1" style="stop-color:#A60003"/>
</linearGradient>
<path class="st3" d="M19.8,87.7l10-32.6L7.8,59.8L19.8,87.7z"/>
<linearGradient id="SVGID_5_" gradientUnits="userSpaceOnUse" x1="91.0993" y1="-1985.439" x2="92.4293" y2="-1961.502" gradientTransform="matrix(1 0 0 1 -47.5 2021)">
	<stop  offset="0" style="stop-color:#FFFFFF"/>
	<stop  offset="0" style="stop-color:#FFFFFF"/>
	<stop  offset="0.23" style="stop-color:#E4714E"/>
	<stop  offset="0.56" style="stop-color:#BE1A0D"/>
	<stop  offset="0.99" style="stop-color:#A80D00"/>
	<stop  offset="1" style="stop-color:#A80D00"/>
</linearGradient>
<path class="st4" d="M62.6,65.6l-9.2-35.9L27.3,54.3L62.6,65.6z"/>
<linearGradient id="SVGID_6_" gradientUnits="userSpaceOnUse" x1="113.1274" y1="-2007.563" x2="117.1084" y2="-1990.407" gradientTransform="matrix(1 0 0 1 -47.5 2021)">
	<stop  offset="0" style="stop-color:#FFFFFF"/>
	<stop  offset="0" style="stop-color:#FFFFFF"/>
	<stop  offset="0.18" style="stop-color:#E46342"/>
	<stop  offset="0.4" style="stop-color:#C82410"/>
	<stop  offset="0.99" style="stop-color:#A80D00"/>
	<stop  offset="1" style="stop-color:#A80D00"/>
</linearGradient>
<path class="st5" d="M85.6,30.2L60.8,10l-6.9,22.3L85.6,30.2z"/>
<linearGradient id="SVGID_7_" gradientUnits="userSpaceOnUse" x1="100.9717" y1="-2013.6039" x2="118.1247" y2="-2022.1798" gradientTransform="matrix(1 0 0 1 -47.5 2021)">
	<stop  offset="0" style="stop-color:#FFFFFF"/>
	<stop  offset="0" style="stop-color:#FFFFFF"/>
	<stop  offset="0.54" style="stop-color:#C81F11"/>
	<stop  offset="0.99" style="stop-color:#BF0905"/>
	<stop  offset="1" style="stop-color:#BF0905"/>
</linearGradient>
<path class="st6" d="M74,2.7l-14.6,8.1l-9.2-8.2L74,2.7z"/>
<linearGradient id="SVGID_8_" gradientUnits="userSpaceOnUse" x1="51.2417" y1="-1969.5181" x2="52.6537" y2="-1955.3821" gradientTransform="matrix(1 0 0 1 -47.5 2021)">
	<stop  offset="0" style="stop-color:#FFFFFF"/>
	<stop  offset="0" style="stop-color:#FFFFFF"/>
	<stop  offset="0.31" style="stop-color:#DE4024"/>
	<stop  offset="0.99" style="stop-color:#BF190B"/>
	<stop  offset="1" style="stop-color:#BF190B"/>
</linearGradient>
<path class="st7" d="M2.1,70.7l6.1-11.1L3.2,46.3L2.1,70.7z"/>
<path class="st8" d="M2.9,45.9l5,14.1l21.6-4.8l24.7-22.9l7-22.1l-11-7.7l-18.6,7c-5.9,5.5-17.3,16.3-17.7,16.5
	C13.4,26,6.3,39.5,2.9,45.9z"/>
<linearGradient id="SVGID_9_" gradientUnits="userSpaceOnUse" x1="41.5359" y1="-1951.5627" x2="107.9029" y2="-2019.8057" gradientTransform="matrix(1 0 0 1 -47.5 2021)">
	<stop  offset="0" style="stop-color:#BD0012"/>
	<stop  offset="0" style="stop-color:#BD0012"/>
	<stop  offset="7.000000e-02" style="stop-color:#FFFFFF"/>
	<stop  offset="0.17" style="stop-color:#FFFFFF"/>
	<stop  offset="0.27" style="stop-color:#C82F1C"/>
	<stop  offset="0.33" style="stop-color:#820C01"/>
	<stop  offset="0.46" style="stop-color:#A31601"/>
	<stop  offset="0.72" style="stop-color:#B31301"/>
	<stop  offset="0.99" style="stop-color:#E82609"/>
	<stop  offset="1" style="stop-color:#E82609"/>
</linearGradient>
<path class="st9" d="M20.3,20.6C33.1,8,49.5,0.5,55.8,6.9c6.3,6.3-0.4,21.8-13.1,34.4C29.9,53.9,13.7,61.7,7.5,55.4
	C1.2,49,7.6,33.2,20.3,20.6z"/>
<linearGradient id="SVGID_10_" gradientUnits="userSpaceOnUse" x1="92.3717" y1="-1944.6774" x2="72.3807" y2="-1949.6115" gradientTransform="matrix(1 0 0 1 -47.5 2021)">
	<stop  offset="0" style="stop-color:#8C0C01"/>
	<stop  offset="0" style="stop-color:#8C0C01"/>
	<stop  offset="0.54" style="stop-color:#990C00"/>
	<stop  offset="0.99" style="stop-color:#A80D0E"/>
	<stop  offset="1" style="stop-color:#A80D0E"/>
</linearGradient>
<path class="st10" d="M19.8,87.7L29.7,55l32.8,10.5C50.6,76.7,37.4,86.1,19.8,87.7z"/>
<linearGradient id="SVGID_11_" gradientUnits="userSpaceOnUse" x1="126.7058" y1="-1968.6702" x2="108.9468" y2="-1984.5862" gradientTransform="matrix(1 0 0 1 -47.5 2021)">
	<stop  offset="0" style="stop-color:#7E110B"/>
	<stop  offset="0" style="stop-color:#7E110B"/>
	<stop  offset="0.99" style="stop-color:#9E0C00"/>
	<stop  offset="1" style="stop-color:#9E0C00"/>
</linearGradient>
<path class="st11" d="M54.2,32.2l8.4,33.4c9.9-10.4,18.8-21.6,23.2-35.5C85.7,30.1,54.2,32.2,54.2,32.2z"/>
<linearGradient id="SVGID_12_" gradientUnits="userSpaceOnUse" x1="133.231" y1="-1997.8744" x2="124.385" y2="-2007.3314" gradientTransform="matrix(1 0 0 1 -47.5 2021)">
	<stop  offset="0" style="stop-color:#79130D"/>
	<stop  offset="0" style="stop-color:#79130D"/>
	<stop  offset="0.99" style="stop-color:#9E120B"/>
	<stop  offset="1" style="stop-color:#9E120B"/>
</linearGradient>
<path class="st12" d="M85.7,30.2C89,20.1,89.8,5.5,73.9,2.8l-13,7.2C60.9,10,85.7,30.2,85.7,30.2z"/>
<path class="st13" d="M2.1,70.6c0.5,16.8,12.6,17,17.7,17.2L7.9,59.9L2.1,70.6z"/>
<radialGradient id="SVGID_13_" cx="111.7136" cy="-1984.281" r="21.762" gradientTransform="matrix(1 0 0 1 -47.5 2021)" gradientUnits="userSpaceOnUse">
	<stop  offset="0" style="stop-color:#A80D00"/>
	<stop  offset="0" style="stop-color:#A80D00"/>
	<stop  offset="0.99" style="stop-color:#7E0E08"/>
	<stop  offset="1" style="stop-color:#7E0E08"/>
</radialGradient>
<path class="st14" d="M54.2,32.2c7.6,4.7,23,14.1,23.3,14.3c0.5,0.3,6.6-10.3,8-16.3C85.5,30.1,54.2,32.2,54.2,32.2z"/>
<radialGradient id="SVGID_14_" cx="81.5736" cy="-1955.6021" r="28.932" gradientTransform="matrix(1 0 0 1 -47.5 2021)" gradientUnits="userSpaceOnUse">
	<stop  offset="0" style="stop-color:#A30C00"/>
	<stop  offset="0" style="stop-color:#A30C00"/>
	<stop  offset="0.99" style="stop-color:#800E08"/>
	<stop  offset="1" style="stop-color:#800E08"/>
</radialGradient>
<path class="st15" d="M29.6,55l13.2,25.5c7.8-4.2,13.9-9.4,19.5-14.9C62.4,65.5,29.6,55,29.6,55z"/>
<linearGradient id="SVGID_15_" gradientUnits="userSpaceOnUse" x1="61.0805" y1="-1933.3091" x2="53.8715" y2="-1957.7661" gradientTransform="matrix(1 0 0 1 -47.5 2021)">
	<stop  offset="0" style="stop-color:#8B2114"/>
	<stop  offset="0" style="stop-color:#8B2114"/>
	<stop  offset="0.43" style="stop-color:#9E100A"/>
	<stop  offset="0.99" style="stop-color:#B3100C"/>
	<stop  offset="1" style="stop-color:#B3100C"/>
</linearGradient>
<path class="st16" d="M7.8,60L6,82.3c3.5,4.8,8.4,5.2,13.5,4.9C15.7,77.9,8.4,59.6,7.8,60z"/>
<linearGradient id="SVGID_16_" gradientUnits="userSpaceOnUse" x1="116.3847" y1="-2014.3562" x2="132.5467" y2="-2007.2222" gradientTransform="matrix(1 0 0 1 -47.5 2021)">
	<stop  offset="0" style="stop-color:#B31000"/>
	<stop  offset="0" style="stop-color:#B31000"/>
	<stop  offset="0.44" style="stop-color:#910F08"/>
	<stop  offset="0.99" style="stop-color:#791C12"/>
	<stop  offset="1" style="stop-color:#791C12"/>
</linearGradient>
<path class="st17" d="M60.8,10L87,13.7c-1.4-5.9-5.7-9.8-13-11L60.8,10z"/>
</svg>
